<svg width="380" height="100" viewBox="0 0 380 110" fill="none" xmlns="http://www.w3.org/2000/svg">
<g filter="url(#filter0_d_506_542)">
<rect x="24" y="20" width="332" height="62" rx="31" fill="#FF7777"/>
<path d="M127.881 43.474H130.851V44.392H132.453V43.42H135.603V51.916H132.453V50.818C132.255 50.854 132.093 50.854 131.967 50.854C131.733 50.872 131.427 50.872 131.049 50.872H130.851V51.556H122.013V43.474H124.983V45.166H127.881V43.474ZM130.851 47.128V48.226H132.453V47.074C132.255 47.11 132.093 47.11 131.967 47.11C131.733 47.128 131.427 47.128 131.049 47.128H130.851ZM124.983 47.686V49.036H127.881V47.686H124.983ZM132.453 57.928V55.516H122.571V52.636H135.603V57.928H132.453ZM141.006 43.474V49.396H143.994C144.498 49.396 144.984 49.378 145.488 49.306C145.974 49.27 146.406 49.18 146.784 49.072V51.628C146.388 51.808 145.938 51.916 145.452 51.988C144.948 52.06 144.444 52.096 143.904 52.096H137.676V43.474H141.006ZM153.138 46.264V49.378C152.994 49.378 152.814 49.396 152.616 49.396C152.4 49.414 152.184 49.432 151.986 49.468C151.77 49.504 151.572 49.522 151.392 49.558C151.266 49.594 151.176 49.63 151.104 49.666V53.446H147.954V43.42H151.104V46.678C151.302 46.552 151.536 46.462 151.842 46.372C152.166 46.3 152.598 46.264 153.138 46.264ZM141.258 53.104V55.174H151.284V57.874H138.108V53.104H141.258ZM154.698 47.02H164.832V46.12H154.788V43.42H167.892V49.72H157.758V50.638H168.162V53.338H162.978V54.994H168.792V57.694H153.906V54.994H159.72V53.338H154.698V47.02ZM183.762 52.186H174.924V43.564H183.762V52.186ZM180.792 49.486V46.264H177.894V49.486H180.792ZM190.386 46.264V49.378C190.242 49.378 190.062 49.396 189.864 49.396C189.648 49.414 189.432 49.432 189.234 49.468C189.018 49.504 188.82 49.522 188.64 49.558C188.514 49.594 188.424 49.63 188.352 49.666V53.446H185.202V43.42H188.352V46.678C188.55 46.552 188.784 46.462 189.09 46.372C189.414 46.3 189.846 46.264 190.386 46.264ZM178.506 53.104V55.174H188.532V57.874H175.356V53.104H178.506ZM201.792 46.174C202.476 46.174 203.088 46.156 203.664 46.12C204.204 46.102 204.69 46.048 205.122 45.976V47.92C204.798 48.028 204.348 48.118 203.79 48.154C203.214 48.226 202.584 48.244 201.9 48.244H192.126V43.528H204.744V45.598H194.916V46.174H201.792ZM206.04 50.836H191.154V48.766H206.04V50.836ZM191.874 53.716H202.152V53.248H191.874V51.376H205.212V55.588H194.934V56.02H205.536V57.946H191.874V53.716ZM207.672 48.892H212.19V46.354H207.762V43.564H215.25V51.592H210.732V54.346H216.114V57.136H207.672V48.892ZM218.112 51.43C217.932 51.484 217.68 51.52 217.356 51.52C217.014 51.538 216.654 51.538 216.294 51.538H216.042V48.658H218.112V43.42H221.262V57.928H218.112V51.43ZM235.862 43.744V45.31C235.862 46.498 235.718 47.65 235.43 48.766C235.142 49.9 234.728 50.98 234.206 52.006C233.666 53.032 233 53.986 232.244 54.868C231.47 55.768 230.606 56.542 229.652 57.226L227.294 54.976C228.968 53.716 230.246 52.348 231.11 50.872C231.974 49.432 232.424 48.01 232.478 46.624H227.834V43.744H235.862ZM243.278 48.226V51.34C242.99 51.34 242.612 51.376 242.18 51.412C241.784 51.466 241.406 51.538 241.064 51.628V57.91H237.734V43.42H241.064V48.55C241.406 48.442 241.784 48.352 242.198 48.298C242.648 48.262 243.008 48.226 243.278 48.226ZM252.596 43.744V45.31C252.596 46.498 252.452 47.65 252.164 48.766C251.876 49.9 251.462 50.98 250.94 52.006C250.4 53.032 249.734 53.986 248.978 54.868C248.204 55.768 247.34 56.542 246.386 57.226L244.028 54.976C245.702 53.716 246.98 52.348 247.844 50.872C248.708 49.432 249.158 48.01 249.212 46.624H244.568V43.744H252.596ZM254.468 57.91V43.42H257.798V57.91H254.468Z" fill="white"/>
</g>
<defs>
<filter id="filter0_d_506_542" x="0" y="0" width="380" height="110" filterUnits="userSpaceOnUse" color-interpolation-filters="sRGB">
<feFlood flood-opacity="0" result="BackgroundImageFix"/>
<feColorMatrix in="SourceAlpha" type="matrix" values="0 0 0 0 0 0 0 0 0 0 0 0 0 0 0 0 0 0 127 0" result="hardAlpha"/>
<feOffset dy="4"/>
<feGaussianBlur stdDeviation="12"/>
<feComposite in2="hardAlpha" operator="out"/>
<feColorMatrix type="matrix" values="0 0 0 0 1 0 0 0 0 0.467757 0 0 0 0 0.467757 0 0 0 0.24 0"/>
<feBlend mode="normal" in2="BackgroundImageFix" result="effect1_dropShadow_506_542"/>
<feBlend mode="normal" in="SourceGraphic" in2="effect1_dropShadow_506_542" result="shape"/>
</filter>
</defs>
</svg>
