<svg width="23" height="23" viewBox="0 0 23 23" fill="none" xmlns="http://www.w3.org/2000/svg">
<g id="Group 17" filter="url(#filter0_d_129_170)">
<path id="Vector 111" d="M7.58755 10.9669C9.05209 10.9669 10.5166 10.9669 11.9812 10.9669C12.4609 10.9669 12.8537 11.1952 13.3168 11.2569C13.6526 11.3017 14.159 9.31568 14.2307 9.0689C14.5303 8.03675 14.7287 6.97724 14.9337 5.92308C14.998 5.59216 15.1948 4.70671 14.9864 4.39411C14.7415 4.02677 10.6607 7.50116 10.0392 7.80354C9.17365 8.22461 8.4235 8.86686 7.66664 9.45554C6.73577 10.1795 7.04984 10.1764 8.19387 9.59614C9.50076 8.93322 10.8063 8.25429 12.1393 7.64538C12.4896 7.48536 13.383 6.8108 13.1762 7.13572C13.0498 7.33431 12.3326 8.67697 12.3326 8.59439" stroke="#FF7777" stroke-width="3" stroke-linecap="round"/>
<path id="Vector 112" d="M13.627 12.6717C12.802 12.6717 12.0841 12.5525 11.3111 12.2462C10.5097 11.9287 9.79118 11.4402 9.03298 11.0345C8.30386 10.6443 7.49649 10.3636 6.67404 10.6467C6.5448 10.6912 5.80441 10.8585 6.0493 11.0829C6.27446 11.2893 6.61409 11.3485 6.90024 11.4115C7.41055 11.5237 7.92037 11.6334 8.4244 11.7723C9.37843 12.0352 10.3515 12.416 11.3488 12.4671C12.2159 12.5114 13.0984 12.5748 13.9663 12.5748" stroke="white" stroke-width="3" stroke-linecap="round"/>
<path id="Vector 113" d="M15.7596 2.78363C15.7596 2.52573 16.4334 2.34463 16.5621 2.55205C16.8376 2.99588 15.9357 3.063 15.7112 2.83211C15.4664 2.58036 15.4019 2.12587 15.8189 2.02964C16.0425 1.97803 16.4731 1.95941 16.5029 2.27199C16.5221 2.47354 16.3806 2.67361 16.1959 2.73516" stroke="white" stroke-width="3" stroke-linecap="round"/>
</g>
<defs>
<filter id="filter0_d_129_170" x="0.499756" y="0.5" width="21.6142" height="21.6717" filterUnits="userSpaceOnUse" color-interpolation-filters="sRGB">
<feFlood flood-opacity="0" result="BackgroundImageFix"/>
<feColorMatrix in="SourceAlpha" type="matrix" values="0 0 0 0 0 0 0 0 0 0 0 0 0 0 0 0 0 0 127 0" result="hardAlpha"/>
<feOffset dy="4"/>
<feGaussianBlur stdDeviation="2"/>
<feComposite in2="hardAlpha" operator="out"/>
<feColorMatrix type="matrix" values="0 0 0 0 0 0 0 0 0 0 0 0 0 0 0 0 0 0 0.25 0"/>
<feBlend mode="normal" in2="BackgroundImageFix" result="effect1_dropShadow_129_170"/>
<feBlend mode="normal" in="SourceGraphic" in2="effect1_dropShadow_129_170" result="shape"/>
</filter>
</defs>
</svg>
