<svg width="46" height="44" viewBox="0 0 46 44" fill="none" xmlns="http://www.w3.org/2000/svg">
<g id="Group 26">
<ellipse id="Ellipse 14" cx="23.1498" cy="21.9713" rx="22.8502" ry="21.9713" fill="black"/>
<path id="Vector" d="M29.4453 31.6012C28.1393 32.807 26.7132 32.6166 25.3405 32.0454C23.8879 31.4615 22.5551 31.4361 21.0225 32.0454C19.1034 32.8324 18.0905 32.6039 16.9443 31.6012C10.4406 25.2166 11.4002 15.4938 18.7835 15.1384C20.5827 15.2272 21.8355 16.0777 22.8883 16.1538C24.4609 15.8492 25.9669 14.9734 27.6462 15.0876C29.6586 15.2399 31.1779 16.0015 32.1774 17.3723C28.0193 19.7459 29.0055 24.9627 32.8172 26.4224C32.0575 28.3264 31.0713 30.2176 29.432 31.6138L29.4453 31.6012ZM22.755 15.0622C22.5551 12.2317 24.9674 9.8962 27.7395 9.66772C28.1259 12.9425 24.6209 15.3796 22.755 15.0622Z" fill="white"/>
</g>
</svg>
