<svg width="46" height="45" viewBox="0 0 46 45" fill="none" xmlns="http://www.w3.org/2000/svg">
<ellipse cx="22.6437" cy="22.1619" rx="22.6437" ry="22.1619" fill="white"/>
<g clip-path="url(#clip0_510_616)">
<path d="M18.6986 10.4914C16.0992 11.3932 13.8574 13.1048 12.3027 15.3748C10.7479 17.6448 9.96201 20.3535 10.0605 23.1031C10.159 25.8528 11.1366 28.4983 12.8498 30.6513C14.563 32.8042 16.9214 34.3511 19.5787 35.0646C21.733 35.6204 23.9901 35.6448 26.1559 35.1357C28.1179 34.695 29.9319 33.7523 31.4201 32.3999C32.969 30.9494 34.0933 29.1042 34.6721 27.0625C35.3012 24.8424 35.4132 22.5075 34.9994 20.2374H22.9018V25.2556H29.9079C29.7679 26.056 29.4678 26.8199 29.0257 27.5016C28.5836 28.1833 28.0084 28.7688 27.3348 29.2231C26.4792 29.789 25.5148 30.1698 24.5035 30.341C23.4891 30.5296 22.4487 30.5296 21.4344 30.341C20.4063 30.1284 19.4338 29.7041 18.5787 29.0951C17.205 28.1227 16.1736 26.7412 15.6315 25.1479C15.0803 23.5247 15.0803 21.765 15.6315 20.1418C16.0174 19.0041 16.6552 17.9681 17.4974 17.1113C18.4612 16.1129 19.6814 15.3991 21.0241 15.0485C22.3668 14.6978 23.7802 14.7238 25.1091 15.1235C26.1473 15.4422 27.0966 15.999 27.8815 16.7496C28.6715 15.9636 29.4601 15.1757 30.2473 14.3857C30.6539 13.9609 31.0969 13.5565 31.4973 13.1215C30.2993 12.0066 28.893 11.1391 27.3591 10.5687C24.5659 9.55443 21.5095 9.52717 18.6986 10.4914Z" fill="white"/>
<path d="M18.6986 10.4915C21.5093 9.52653 24.5656 9.55307 27.3591 10.5667C28.8933 11.141 30.2989 12.0127 31.4953 13.1317C31.0888 13.5666 30.6599 13.9731 30.2453 14.3959C29.4567 15.1832 28.6687 15.9677 27.8815 16.7496C27.0966 15.999 26.1473 15.4422 25.1091 15.1236C23.7806 14.7224 22.3673 14.695 21.0242 15.0442C19.6811 15.3934 18.4602 16.1058 17.4953 17.1032C16.6531 17.96 16.0153 18.9959 15.6295 20.1337L11.4161 16.8715C12.9242 13.8808 15.5355 11.5931 18.6986 10.4915Z" fill="#E33629"/>
<path d="M10.2982 20.1033C10.5247 18.9809 10.9007 17.894 11.4161 16.8716L15.6295 20.1419C15.0783 21.7651 15.0783 23.5248 15.6295 25.148C14.2257 26.232 12.8213 27.3214 11.4161 28.4163C10.1258 25.8478 9.73224 22.9214 10.2982 20.1033Z" fill="#F8BD00"/>
<path d="M22.9018 20.2354H34.9994C35.4132 22.5055 35.3012 24.8404 34.6721 27.0605C34.0934 29.1022 32.9691 30.9474 31.4201 32.3979C30.0604 31.3369 28.6945 30.2841 27.3348 29.2231C28.0089 28.7684 28.5843 28.1823 29.0264 27.4998C29.4686 26.8174 29.7684 26.0527 29.9079 25.2516H22.9018C22.8998 23.5809 22.9018 21.9081 22.9018 20.2354Z" fill="#587DBD"/>
<path d="M11.4141 28.4162C12.8192 27.3322 14.2237 26.2428 15.6275 25.1479C16.1706 26.7418 17.2035 28.1233 18.5787 29.0951C19.4364 29.7013 20.4111 30.1222 21.4405 30.3309C22.4548 30.5195 23.4952 30.5195 24.5096 30.3309C25.5209 30.1597 26.4853 29.7789 27.3409 29.213C28.7006 30.274 30.0665 31.3268 31.4262 32.3878C29.9382 33.7409 28.1242 34.6843 26.162 35.1256C23.9962 35.6347 21.7391 35.6103 19.5848 35.0544C17.8809 34.5995 16.2894 33.7975 14.91 32.6987C13.45 31.5396 12.2575 30.0788 11.4141 28.4162Z" fill="#319F43"/>
</g>
<defs>
<clipPath id="clip0_510_616">
<rect width="26.0162" height="26.0162" fill="white" transform="translate(9.63562 9.63574)"/>
</clipPath>
</defs>
</svg>
