<svg width="46" height="44" viewBox="0 0 46 44" fill="none" xmlns="http://www.w3.org/2000/svg">
<ellipse cx="23" cy="22" rx="23" ry="22" fill="#FFDD36"/>
<path d="M22.9987 10C30.732 10 37 14.9362 37 21.0271C37 27.1165 30.732 32.0528 23 32.0528C22.2302 32.0514 21.4611 32.0019 20.6973 31.9046L14.82 35.7886C14.152 36.1456 13.916 36.1066 14.1907 35.2322L15.38 30.2771C11.54 28.3102 9 24.9017 9 21.0271C9 14.9376 15.2667 10 23 10M30.8773 20.8586L32.8373 18.9402C32.9504 18.8215 33.0135 18.6631 33.0133 18.4984C33.0131 18.3336 32.9497 18.1754 32.8363 18.057C32.7229 17.9386 32.5685 17.8692 32.4055 17.8636C32.2425 17.858 32.0838 17.9165 31.9627 18.0268L29.392 20.5407V18.4633C29.392 18.2946 29.3257 18.1329 29.2077 18.0136C29.0896 17.8944 28.9296 17.8274 28.7627 17.8274C28.5958 17.8274 28.4357 17.8944 28.3177 18.0136C28.1996 18.1329 28.1333 18.2946 28.1333 18.4633V21.9081C28.1112 22.0066 28.1112 22.1088 28.1333 22.2072V24.1459C28.1333 24.3145 28.1996 24.4763 28.3177 24.5955C28.4357 24.7148 28.5958 24.7818 28.7627 24.7818C28.9296 24.7818 29.0896 24.7148 29.2077 24.5955C29.3257 24.4763 29.392 24.3145 29.392 24.1459V22.3096L29.9613 21.7532L31.8653 24.4921C31.9129 24.5605 31.9733 24.6187 32.0431 24.6635C32.1129 24.7083 32.1908 24.7388 32.2722 24.7532C32.3537 24.7676 32.4372 24.7656 32.5179 24.7474C32.5986 24.7292 32.675 24.6951 32.7427 24.647C32.8103 24.599 32.868 24.538 32.9123 24.4674C32.9567 24.3969 32.9868 24.3182 33.001 24.2359C33.0153 24.1536 33.0133 24.0692 32.9953 23.9877C32.9773 23.9061 32.9435 23.829 32.896 23.7606L30.8773 20.8586ZM26.9333 23.4507H24.9867V18.4835C24.9792 18.3201 24.9097 18.1659 24.7926 18.0529C24.6756 17.9399 24.5199 17.8769 24.358 17.8769C24.1961 17.8769 24.0404 17.9399 23.9234 18.0529C23.8063 18.1659 23.7368 18.3201 23.7293 18.4835V24.0866C23.7293 24.4369 24.0093 24.7225 24.3573 24.7225H26.9333C27.1002 24.7225 27.2603 24.6555 27.3783 24.5362C27.4964 24.417 27.5627 24.2553 27.5627 24.0866C27.5627 23.918 27.4964 23.7562 27.3783 23.637C27.2603 23.5177 27.1002 23.4507 26.9333 23.4507ZM19.124 21.9809L20.052 19.6798L20.9027 21.9795L19.124 21.9809ZM22.488 22.637L22.4907 22.6154C22.4902 22.4553 22.4297 22.3012 22.3213 22.1843L20.9267 18.4121C20.8682 18.2323 20.7568 18.0749 20.6075 17.9608C20.4581 17.8466 20.2778 17.7813 20.0907 17.7735C19.9024 17.7734 19.7184 17.8309 19.563 17.9384C19.4076 18.0458 19.2881 18.1983 19.22 18.3757L17.004 23.8657C16.9409 24.0218 16.9417 24.1969 17.0064 24.3524C17.071 24.5079 17.1941 24.6311 17.3487 24.6949C17.5032 24.7587 17.6765 24.7578 17.8304 24.6925C17.9843 24.6272 18.1062 24.5028 18.1693 24.3466L18.612 23.2513H21.372L21.7693 24.3291C21.7964 24.4097 21.8393 24.4839 21.8953 24.5474C21.9513 24.611 22.0194 24.6625 22.0955 24.699C22.1716 24.7354 22.2541 24.7561 22.3382 24.7597C22.4224 24.7634 22.5064 24.7499 22.5853 24.7202C22.6642 24.6904 22.7364 24.645 22.7975 24.5865C22.8587 24.528 22.9077 24.4578 22.9415 24.3798C22.9753 24.3019 22.9933 24.2179 22.9945 24.1328C22.9956 24.0478 22.9798 23.9633 22.948 23.8845L22.488 22.637ZM18.0573 18.4902C18.0577 18.4067 18.0417 18.324 18.0103 18.2468C17.9789 18.1695 17.9326 18.0994 17.8743 18.0403C17.8159 17.9812 17.7465 17.9343 17.6702 17.9024C17.5938 17.8705 17.512 17.8542 17.4293 17.8543H13.1027C12.9358 17.8543 12.7757 17.9213 12.6577 18.0406C12.5396 18.1598 12.4733 18.3216 12.4733 18.4902C12.4733 18.6589 12.5396 18.8206 12.6577 18.9399C12.7757 19.0591 12.9358 19.1261 13.1027 19.1261H14.6493V24.1594C14.6493 24.328 14.7156 24.4897 14.8337 24.609C14.9517 24.7282 15.1118 24.7952 15.2787 24.7952C15.4456 24.7952 15.6056 24.7282 15.7237 24.609C15.8417 24.4897 15.908 24.328 15.908 24.1594V19.1261H17.428C17.5107 19.1265 17.5927 19.1103 17.6693 19.0784C17.7458 19.0466 17.8153 18.9998 17.8738 18.9407C17.9323 18.8815 17.9786 18.8113 18.0101 18.734C18.0416 18.6567 18.0577 18.5738 18.0573 18.4902Z" fill="#4E2828"/>
</svg>
